# xmcd
#
# Track frame offsets: 
#        150
#        16099
#        35421
#        56545
#        74343
#        90767
#        106329
#        131111
#        140266
#        168855
#        184527
#        200569
#        226416
#
# Disc length: 3225 seconds
#
# Revision: 0
# Processed by: cddbd v1.4PL0 Copyright (c) Steve Scherf et al.
# Submitted via: ExactAudioCopy v0.90b3
#
DISCID=a20c970d
DTITLE=Eric Culberson - No Rules to the Game
DYEAR=1998
DGENRE=Blues
TTITLE0=Broken Family Blues
TTITLE1=I Came From the Blues
TTITLE2=No Rules to the Game
TTITLE3=Matter of Time
TTITLE4=Workhorse Blues
TTITLE5=Honey Bee
TTITLE6=Why Did You Lie?
TTITLE7=High Steppin'
TTITLE8=Small Town
TTITLE9=I Promised Myself (I Wouldn't Drink No More)
TTITLE10=It's My Life, Baby
TTITLE11=If You Leave Me
TTITLE12=Savannah Swing
EXTD=
EXTT0=
EXTT1=
EXTT2=
EXTT3=
EXTT4=
EXTT5=
EXTT6=
EXTT7=
EXTT8=
EXTT9=
EXTT10=
EXTT11=
EXTT12=
PLAYORDER=
